<?xml version="1.0" encoding="UTF-8" standalone="no"?>
<!-- Creator: CorelDRAW -->

<svg
   xmlns:dc="http://purl.org/dc/elements/1.1/"
   xmlns:cc="http://creativecommons.org/ns#"
   xmlns:rdf="http://www.w3.org/1999/02/22-rdf-syntax-ns#"
   xmlns:svg="http://www.w3.org/2000/svg"
   xmlns="http://www.w3.org/2000/svg"
   xmlns:sodipodi="http://sodipodi.sourceforge.net/DTD/sodipodi-0.dtd"
   xmlns:inkscape="http://www.inkscape.org/namespaces/inkscape"
   xml:space="preserve"
   width="1000px"
   height="600px"
   shape-rendering="geometricPrecision"
   text-rendering="geometricPrecision"
   image-rendering="optimizeQuality"
   fill-rule="evenodd"
   viewBox="0 0 1000 600"
   id="svg3030"
   version="1.1"
   inkscape:version="0.48.1 "
   sodipodi:docname="AJAX.svg"><title
   id="title3072">Unofficial flag for the Upper Sorbian language.</title><metadata
   id="metadata3043"><rdf:RDF><cc:Work
       rdf:about=""><dc:format>image/svg+xml</dc:format><dc:type
         rdf:resource="http://purl.org/dc/dcmitype/StillImage" /><dc:title>Unofficial flag for the Upper Sorbian language.</dc:title></cc:Work></rdf:RDF></metadata><defs
   id="defs3041" /><sodipodi:namedview
   pagecolor="#ffffff"
   bordercolor="#666666"
   borderopacity="1"
   objecttolerance="10"
   gridtolerance="10"
   guidetolerance="10"
   inkscape:pageopacity="0"
   inkscape:pageshadow="2"
   inkscape:window-width="1280"
   inkscape:window-height="1004"
   id="namedview3039"
   showgrid="false"
   inkscape:zoom="0.39838714"
   inkscape:cx="173.93544"
   inkscape:cy="229.2606"
   inkscape:window-x="-8"
   inkscape:window-y="-8"
   inkscape:window-maximized="1"
   inkscape:current-layer="svg3030" />
 <g
   id="Layer 1">
  <rect
   fill="#FFFFFF"
   x="0"
   y="380"
   width="1000"
   height="220"
   id="rect3033" />
  <rect
   fill="#DA251D"
   x="0"
   y="180"
   width="1000"
   height="220"
   id="rect3035"
   style="fill:#ce1126;fill-opacity:1" />
  <rect
   fill="#1B00E7"
   x="0"
   y="0"
   width="1000"
   height="200"
   id="rect3037"
   style="fill:#0038a8;fill-opacity:1" />
 </g>
<g
   id="g1438"
   transform="matrix(0.52522552,0,0,0.52522552,361.15968,147.65747)"><path
     style="fill:#fdd400"
     inkscape:connector-curvature="0"
     id="path1430"
     d="m 250.971,571.399 c -0.25,-0.09 -5.337,-0.684 -17.585,-2.052 -12.511,-1.396 -22.003,-3.249 -40.161,-7.84 -6.113,-1.546 -25,-8.63 -33.253,-12.473 -17.771,-8.275 -28.768,-14.55 -42.12,-24.033 -8.354,-5.933 -12.35,-9.074 -18.678,-14.687 -3.245,-2.879 -7.57,-6.615 -9.612,-8.304 C 82.983,496.57 74.191,486.66 62.047,470.998 52.491,458.674 50.37,455.405 42.655,441.114 35.091,427.101 32.413,421.36 28.043,409.795 26.15,404.784 24.245,399.766 23.809,398.64 c -1.513,-3.911 -6.213,-23.407 -7.796,-32.342 -0.627,-3.539 -1.479,-9.515 -1.926,-13.51 -1.181,-10.553 -1.681,-14.779 -1.933,-16.313 -0.146,-0.895 -0.225,-58.05 -0.225,-164.729 V 8.39 l 252.485,0.051 252.486,0.052 0.061,164.063 c 0.068,182.34 0.164,170.289 -1.422,179.723 -2.263,13.463 -3.698,20.968 -5.247,27.429 -2.81,11.724 -4.104,16.562 -5.206,19.454 -0.577,1.515 -1.897,5.012 -2.935,7.771 -1.037,2.757 -2.516,6.67 -3.286,8.693 -0.77,2.022 -3.696,8.56 -6.505,14.526 -4.563,9.696 -5.463,11.437 -8.495,16.43 -4.271,7.029 -9.216,14.624 -13.299,20.428 -2.411,3.429 -5.027,6.678 -10.955,13.613 -10.797,12.63 -15.183,17.313 -21.487,22.948 -6.755,6.037 -11.269,9.796 -17.288,14.396 -13.614,10.403 -24.692,17.478 -40.465,25.839 -12.58,6.67 -33.813,15.015 -46.014,18.084 -19.819,4.985 -26.902,6.258 -47.423,8.515 -2.559,0.281 -5.315,0.611 -6.126,0.731 -1.392,0.207 -29.312,0.454 -29.837,0.263 z" /><path
     style="fill:#008a49"
     inkscape:connector-curvature="0"
     d="m 251.12,570.765 c -0.25,-0.092 -5.328,-0.685 -17.556,-2.051 -12.491,-1.396 -21.968,-3.248 -40.096,-7.837 -6.103,-1.545 -24.958,-8.626 -33.198,-12.468 -17.741,-8.271 -28.72,-14.541 -42.051,-24.019 -8.34,-5.931 -12.33,-9.071 -18.647,-14.681 -3.239,-2.877 -7.558,-6.612 -9.596,-8.3 -6.568,-5.438 -15.346,-15.342 -27.47,-30.995 -9.54,-12.317 -11.658,-15.585 -19.359,-29.87 -7.552,-14.006 -10.225,-19.742 -14.588,-31.303 -1.89,-5.007 -3.792,-10.025 -4.227,-11.149 -1.51,-3.909 -6.202,-23.395 -7.783,-32.326 -0.627,-3.537 -1.477,-9.51 -1.923,-13.502 -1.178,-10.549 -1.678,-14.772 -1.929,-16.306 -0.146,-0.895 -0.224,-58.02 -0.224,-164.645 V 8.039 l 504.137,0.102 0.062,163.98 c 0.068,182.246 0.163,170.203 -1.42,179.631 -2.259,13.457 -3.692,20.959 -5.238,27.416 -2.805,11.717 -4.098,16.553 -5.198,19.444 -0.575,1.515 -1.895,5.009 -2.929,7.767 -1.035,2.756 -2.512,6.666 -3.28,8.688 -0.77,2.022 -3.691,8.556 -6.494,14.52 -4.556,9.691 -5.454,11.432 -8.482,16.421 -4.265,7.027 -9.2,14.618 -13.276,20.418 -2.407,3.427 -5.019,6.675 -10.937,13.605 -10.78,12.624 -15.158,17.305 -21.452,22.937 -6.744,6.035 -11.25,9.792 -17.261,14.391 -13.591,10.397 -24.65,17.468 -40.397,25.826 -12.56,6.666 -33.758,15.006 -45.938,18.074 -19.786,4.982 -26.857,6.255 -47.345,8.511 -2.554,0.281 -5.306,0.61 -6.115,0.731 -1.392,0.207 -29.267,0.454 -29.79,0.264 z m 69.993,-3.914 c 42.952,-9.043 92.931,-44.404 92.288,-45.086 l -17.479,-18.541 c 0,0 -300.063,1.171 -299.962,1.268 32.306,30.771 67.638,47.685 99.351,58.445 15.335,5.203 27.503,7.912 46.976,9.905 7.805,0.799 68.955,-3.913 78.826,-5.991 z m 30.52,-115.94 -54.351,-60.428 c 0,0 -273.019,-0.767 -273.019,-0.32 0,0.787 26.562,59.897 27.357,60.952 0.197,0.262 300.13,0.111 300.013,-0.204 z m 93.974,-4.337 c -0.217,-0.703 -0.344,-1.419 -0.386,-2.131 -0.043,-0.712 -0.002,-1.421 0.116,-2.111 0.479,-2.942 1.76,-4.956 3.524,-6.327 0.588,-0.457 1.23,-0.843 1.914,-1.167 0.853,-0.472 1.698,-0.693 2.538,-0.744 2.835,-0.039 5.138,1.492 7.952,2.257 5.629,1.276 7.164,-4.593 11.258,-7.146 2.048,-1.275 4.606,-1.021 6.679,0.313 0.146,0.088 0.506,0.315 1.007,0.635 2.507,1.591 8.528,5.438 8.626,5.33 0.805,-0.892 18.088,-47.106 17.234,-47.129 0,0 -6.9,-0.176 -14.827,-0.379 -0.606,-0.01 -1.221,-0.021 -1.835,-0.019 -3.834,0.162 -7.672,1.693 -11.51,0.673 -6.141,-1.275 -11.259,2.041 -10.936,8.267 -0.11,0.99 -0.19,2.008 -0.265,3.023 -0.222,3.048 -0.379,6.088 -1.065,8.395 -0.085,0.797 -0.156,1.567 -0.258,2.283 -0.132,0.935 -0.302,1.794 -0.482,2.545 -0.558,2.719 -1.694,4.894 -3.231,6.577 -0.385,0.42 -0.794,0.811 -1.226,1.166 -1.472,0.665 -2.495,2.196 -4.399,2.378 -0.542,0.105 -1.103,0.137 -1.678,0.073 -2.303,0 -4.605,-0.255 -6.861,0.312 -0.735,0.169 -1.465,0.373 -2.191,0.593 -2.909,0.882 -5.787,2.031 -8.858,2.158 -0.938,0.085 -1.826,0.014 -2.648,-0.188 -2.043,-0.434 -3.993,-1.978 -4.517,-3.907 -0.175,-0.643 -0.19,-1.328 0.001,-2.029 1.791,-5.359 3.582,-14.037 -4.094,-15.313 -4.861,-0.766 -7.164,4.083 -10.004,7.01 -0.534,0.812 -1.006,1.624 -1.389,2.414 -0.383,0.79 -0.677,1.556 -0.855,2.271 -0.467,1.871 2.325,21.206 6.285,25.72 0.44,0.502 0.895,0.822 1.359,0.922 2.865,1.406 5.813,2.577 8.834,3.414 0.755,0.209 1.517,0.398 2.28,0.564 3.724,0.813 7.562,-0.207 11.274,-0.989 1.613,0.08 2.634,0.286 2.634,0.286 z M 257.366,344.015 205.235,282.227 14.604,283.279 c 0,0 1.02,61.247 1.479,62.593 0.169,0.499 241.403,-1.359 241.283,-1.857 z m 255.393,-2.957 0.304,-56.763 c 0,0 -72.79,-0.177 -114.579,-0.278 -0.561,0 -1.117,-10e-4 -1.666,-0.004 -8.218,0.494 -17.429,-1.802 -25.101,0.75 -0.418,0.701 -0.763,1.436 -1.049,2.195 -1.995,5.322 -1.104,11.947 -1.816,18.047 -0.063,0.785 -0.158,1.567 -0.295,2.347 -0.219,0.866 -0.495,1.702 -0.843,2.504 -0.6,1.83 -1.545,3.313 -2.73,4.449 -0.592,0.569 -1.244,1.05 -1.943,1.443 -4.121,2.189 -9.239,0.658 -13.333,-0.873 -2.559,-1.021 -4.861,1.787 -6.896,3.266 -0.656,0.43 -1.326,0.811 -2.021,1.092 -1.389,0.562 -2.874,0.725 -4.548,0.077 -0.501,-0.202 -0.977,-0.465 -1.413,-0.786 -0.871,-0.643 -1.582,-1.522 -2.009,-2.627 -0.256,-0.639 -0.336,-1.261 -0.298,-1.87 0.038,-0.609 0.194,-1.206 0.411,-1.794 3.725,-5.013 2.957,-13.689 -3.951,-14.966 -6.142,-1.021 -8.444,6.635 -10.184,11.32 -0.277,0.9 -0.511,1.846 -0.691,2.828 -0.724,3.93 -0.617,8.463 0.811,13.097 4.062,13.184 22.675,15.138 28.442,14.186 0.961,-0.158 1.565,-0.398 1.684,-0.683 1.942,-4.511 1.942,-10.635 7.061,-13.188 2.175,-1.021 4.605,-1.084 6.885,-0.466 0.76,0.207 1.503,0.488 2.215,0.837 1.391,0.906 2.926,2.437 3.438,2.182 3.838,-1.275 6.396,-5.87 10.747,-6.38 4.605,-0.766 8.443,3.827 8.699,8.166 0,1.786 -1.279,3.317 -2.317,4.592 -0.592,0.681 -1.243,1.348 -1.876,2.023 -1.265,1.354 -2.459,2.742 -2.971,4.358 5.885,1.021 11.514,1.275 17.47,1.024 0.52,0.003 1.05,0.005 1.591,0.008 35.122,0.176 112.77,0.228 112.772,-0.113 z M 156.042,232.144 c 0.175,-0.28 -51.088,-58.292 -51.313,-58.377 -0.525,-0.199 -88.422,0.517 -88.947,0.716 -0.357,0.136 -1.16,55.538 -1.069,55.628 0.265,0.262 141.164,2.295 141.329,2.033 z m 359.354,1.408 -1.258,-63.518 -240.195,0.566 c 0,0 -1.061,11.369 -2.607,20.415 -0.101,0.604 -0.205,1.197 -0.311,1.778 0.898,12.093 -9.336,15.411 -19.315,12.093 -0.768,-0.255 -1.791,0.255 -2.464,0.697 -0.812,0.252 -1.621,0.525 -2.427,0.819 -2.419,0.882 -4.818,1.954 -7.225,3.223 -0.606,-0.063 -1.189,-0.236 -1.729,-0.496 -2.161,-1.04 -3.639,-3.478 -3.298,-6.03 0.512,-3.573 2.303,-6.89 1.855,-10.559 -0.08,-0.662 -0.228,-1.29 -0.459,-1.864 -0.692,-1.721 -2.132,-2.953 -4.723,-3.144 -4.35,-0.51 -6.908,4.083 -7.997,7.824 -0.289,0.706 -0.564,1.397 -0.839,2.045 -0.274,0.649 -0.548,1.253 -0.828,1.785 -0.364,0.876 -0.679,1.78 -0.941,2.7 -2.36,8.285 -0.458,17.966 8.206,21.756 0.779,0.579 1.592,1.134 2.44,1.647 5.936,3.588 13.597,5.052 17.588,3.938 1.14,-0.317 1.981,-0.846 2.391,-1.611 0.149,-0.844 0.338,-1.646 0.566,-2.405 0.228,-0.759 0.494,-1.477 0.799,-2.152 0.314,-0.671 0.687,-1.321 1.111,-1.94 0.424,-0.62 0.899,-1.209 1.404,-1.762 3.479,-4.774 10.131,-4.52 14.472,-0.687 0.776,0.25 1.801,0.761 2.057,-0.005 0.352,-0.638 0.743,-1.261 1.171,-1.856 0.428,-0.595 0.891,-1.164 1.385,-1.696 2.968,-3.192 7.063,-5.048 11.358,-3.286 0.785,0.33 1.524,0.758 2.195,1.275 0.67,0.518 1.271,1.125 1.778,1.82 0.369,0.537 0.677,1.129 0.91,1.78 0.452,0.854 0.678,1.791 0.695,2.738 0.017,0.947 -0.175,1.904 -0.559,2.797 -1.023,3.063 -3.327,5.359 -3.583,8.677 5.886,0.255 11.771,0.255 17.556,0.283 0.769,0.012 1.564,0.024 2.387,0.036 51.037,0.778 207.85,2.552 208.434,2.319 z M 61.993,124.449 C 61.89,123.962 13.983,72.592 13.67,72.592 c -0.258,0 -0.673,50.638 -0.416,50.904 0.099,0.101 48.815,1.309 48.739,0.953 z M 516.621,58.806 c 0,0 -251.599,2.69 -320.143,3.48 -0.692,0.008 -1.366,0.016 -2.021,0.023 -5.18,0.175 -11.064,-2.632 -14.903,-0.335 -4.35,2.808 -2.303,10.208 -2.586,15.73 -0.002,0.868 0.005,1.735 0.013,2.603 0.007,0.867 0.016,1.732 0.016,2.594 0,1.021 -0.768,2.296 -0.92,3.444 -0.196,0.553 -0.402,1.106 -0.615,1.659 -0.768,2.297 0,5.104 -1.536,6.89 -2.303,2.808 -6.141,4.083 -9.793,2.766 -0.615,-0.181 -1.222,-0.391 -1.826,-0.602 -1.814,-0.632 -3.605,-1.271 -5.524,-1.143 -4.861,0 -8.444,4.849 -13.441,3.921 -0.569,-0.066 -1.083,-0.151 -1.537,-0.256 -0.925,-0.214 -1.523,-0.63 -1.898,-1.172 -0.267,-0.961 -0.779,-1.727 -0.523,-2.748 1.023,-5.104 5.117,-9.953 1.535,-14.801 -1.791,-2.552 -5.629,-2.552 -8.188,-1.021 -3.582,2.297 -5.117,6.38 -6.229,10.227 -0.232,0.765 -0.439,1.505 -0.624,2.197 -0.3,0.876 -0.559,1.737 -0.766,2.601 -1.862,7.763 0.553,16.012 6.043,22.024 0.438,0.409 0.93,0.796 1.473,1.161 2.171,1.461 5.153,2.575 8.309,3.417 0.525,0.141 1.056,0.273 1.589,0.398 4.789,1.103 11.186,1.869 13.233,-0.428 1.535,-1.786 1.791,-4.849 2.495,-7.784 0.176,-0.734 0.38,-1.46 0.64,-2.158 0.959,-3.074 3.774,-5.371 6.974,-5.415 0.83,0.043 1.662,0.297 2.429,0.807 0.512,0.259 1.045,0.599 1.593,0.973 2.74,1.875 5.857,4.619 8.566,1.941 0.431,-0.47 0.815,-1.006 1.185,-1.569 0.37,-0.563 0.725,-1.15 1.098,-1.725 0.374,-0.574 0.764,-1.134 1.205,-1.64 0.938,-1.039 1.961,-1.805 3.497,-2.06 0.832,-0.191 1.663,-0.223 2.471,-0.115 0.808,0.107 1.591,0.354 2.327,0.721 0.49,0.245 0.959,0.542 1.4,0.888 5.061,3.61 3.27,9.99 1.479,14.839 -1.791,6.125 7.932,5.359 11.94,4.95 0.866,-0.055 1.733,-0.113 2.597,-0.16 1.728,-0.094 3.439,-0.146 5.082,-0.043 0.742,0.01 1.507,0.021 2.293,0.032 68.432,0.966 301.099,4.251 301.099,4.251 l 0.492,-69.362 z"
     id="path3005" /><path
     inkscape:connector-curvature="0"
     d="m 252.374,573.771 c -0.774,-0.052 -4.17,-0.271 -7.548,-0.489 -23.799,-1.535 -48.785,-7.198 -73.179,-16.586 -10.785,-4.15 -19.72,-8.451 -34.159,-16.439 C 119.094,530.079 95.85,511.772 81.095,495.84 66.992,480.613 59.315,470.877 50.711,457.306 29.878,424.446 17.567,390.582 12.901,353.313 11.659,343.392 11.076,336.211 10.83,327.793 10.544,318.048 10.504,6.879 10.788,6.434 L 518.094,6.243 V 168.932 331.62 l -0.573,7.705 c -1.362,18.289 -3.856,32.373 -9.124,51.519 -3.806,13.833 -10.048,29.554 -18.129,45.664 -4.936,9.839 -10.242,18.513 -19.126,31.261 -6.847,9.827 -17.428,22.227 -27.89,32.682 -13.099,13.092 -25.92,23.405 -42.144,33.897 -8.21,5.311 -23.688,13.729 -32.059,17.439 -27.387,12.137 -56.069,19.44 -84.564,21.532 -5.242,0.386 -28.246,0.709 -32.111,0.452 z m 30.807,-6.607 c 16.55,-1.543 26.895,-3.081 37.126,-5.519 31.986,-7.623 58.956,-19.614 85.919,-38.203 3.08,-2.124 4.275,-3.087 4.222,-3.401 -0.058,-0.342 -10.316,-12.157 -12.979,-14.95 l -0.548,-0.573 c 0,0 -297.326,0.09 -297.42,0.241 -0.183,0.296 6.311,5.85 12.402,10.605 25.283,19.746 53.682,34.241 84.309,43.033 16.161,4.64 27.982,6.75 49.007,8.752 5.494,0.522 7.781,0.6 18.67,0.626 11.404,0.028 12.965,-0.021 19.292,-0.611 z m 134.993,-52.758 c 1.112,-0.878 2.028,-1.726 2.036,-1.886 C 420.218,512.361 17.609,57.061 17.294,56.96 c -0.248,-0.08 -0.32,0.948 -0.32,4.579 v 4.683 l 1.49,1.655 c 0.819,0.91 397.176,448.11 397.357,448.115 0.182,0.005 1.241,-0.708 2.353,-1.586 z m 10.19,-8.586 c 4.598,-3.984 5.794,-5.225 5.513,-5.711 C 433.756,499.9 17.15,25.878 16.956,25.876 l 0.019,22.073 0.832,0.959 c 1.637,1.888 406.508,459.947 406.702,459.947 0.193,10e-4 1.929,-1.365 3.855,-3.035 z m 12.179,-11.251 c 0.949,-0.98 1.688,-1.95 1.642,-2.155 C 442.139,492.209 22.73,14.854 22.312,14.462 21.583,13.781 21.454,13.754 19.326,13.824 l -2.224,0.074 -0.149,3.354 c 0,0 421.118,479.099 421.577,479.099 0.158,-10e-4 1.065,-0.803 2.013,-1.782 z m 4.373,-14.487 c 0,-4.781 0.081,-5.951 0.589,-8.45 0.615,-3.032 1.723,-6.377 2.603,-7.865 0.593,-1.001 0.666,-1.612 0.192,-1.612 -0.179,0 -1.417,0.275 -2.75,0.612 -6.259,1.579 -13.153,1.401 -19.18,-0.498 -1.146,-0.36 -2.251,-0.62 -2.458,-0.577 -0.389,0.083 20.258,23.888 20.748,23.923 0.163,0.011 0.255,-1.99 0.256,-5.533 z m 8.751,0 c 4.269,-4.704 15.212,-19.387 18.878,-25.328 3.828,-6.204 9.344,-16.018 9.344,-16.624 0,-0.782 -2.397,-3.125 -4.15,-4.057 -4.33,-2.302 -8.388,0.242 -8.388,5.258 0,0.746 -0.119,1.43 -0.265,1.521 -0.392,0.241 -4.814,1.396 -5.346,1.396 -0.282,0 -0.812,-0.571 -1.379,-1.488 -1.86,-3.005 -4.398,-4.687 -7.074,-4.687 -3.451,0 -5.834,2.638 -5.578,6.175 0.115,1.589 1.07,4.06 1.727,4.464 1.362,0.84 -3.24,2.866 -8.763,3.857 -3.223,0.58 -9.069,0.582 -12.042,0.005 -4.835,-0.938 -8.84,-2.942 -11.601,-5.807 -3.61,-3.746 -7.133,-10.354 -8.46,-15.871 -0.627,-2.604 -0.605,-8.337 0.04,-10.76 1.337,-5.016 4.266,-9.545 8.59,-13.284 2.49,-2.153 2.82,-2.287 5.629,-2.287 2.139,0 2.605,0.085 3.875,0.707 4.88,2.391 6.092,8.868 3.012,16.1 -0.896,2.104 -0.916,2.471 -0.17,3.152 2.469,2.252 6.539,1.686 11.176,-1.556 l 2.063,-1.442 1.224,0.618 c 3.717,1.879 8.153,2.226 11.111,0.867 5.122,-2.353 6.829,-8.756 3.88,-14.562 l -0.631,-1.239 1.345,-2.088 c 2.813,-4.366 3.127,-6.271 1.589,-9.627 -0.512,-1.117 -1.015,-2.032 -1.116,-2.032 -0.101,0 -1.15,0.447 -2.331,0.994 -2.808,1.298 -5.002,1.813 -7.718,1.813 -2.98,0 -4.635,-0.616 -6.141,-2.287 -1.964,-2.177 -2.498,-5.135 -1.366,-7.559 0.72,-1.542 2.199,-2.826 4.514,-3.919 1.489,-0.703 1.903,-0.781 4.11,-0.781 2.856,0 5.664,0.627 7.988,1.785 0.846,0.422 1.67,0.767 1.833,0.767 0.479,0 1.585,-1.309 2.268,-2.68 0.979,-1.966 1.263,-3.35 1.261,-6.13 -0.002,-2.18 -0.117,-2.888 -0.778,-4.802 l -0.775,-2.244 0.591,-1.451 c 0.896,-2.204 1.237,-4.376 1.091,-6.953 -0.109,-1.898 -0.271,-2.577 -0.943,-3.938 -2.501,-5.067 -7.835,-6.918 -13.885,-4.817 -2.259,0.783 -2.103,0.818 -4.797,-1.056 -2.597,-1.806 -4.045,-2.275 -7.053,-2.286 -2.426,-0.008 -2.641,0.036 -4.141,0.848 -0.87,0.471 -1.646,1.021 -1.724,1.225 -0.078,0.202 0.316,1.278 0.878,2.392 1.663,3.3 2.3,5.504 2.3,7.967 0,2.529 -0.442,4.192 -1.823,6.851 -1.747,3.366 -3.151,4.369 -6.078,4.347 -3.116,-0.023 -6.347,-2.264 -7.304,-5.066 -1.097,-3.207 0.082,-7.798 3.074,-11.979 l 1.167,-1.632 -0.649,-1.104 c -1.917,-3.263 -5.54,-4.577 -9.659,-3.505 -1.074,0.28 -2.743,0.905 -3.71,1.391 l -1.757,0.883 -1.222,-1.104 c -2.262,-2.042 -5.938,-2.868 -9.134,-2.05 -3.1,0.792 -5.419,2.684 -6.756,5.508 -1.061,2.242 -1.237,5.683 -0.457,8.933 0.586,2.441 0.712,2.053 -1.53,4.706 -1.998,2.363 -3.075,4.626 -3.229,6.784 -0.135,1.868 0.183,3.181 0.971,4.023 l 0.506,0.542 1.215,-0.605 c 4.314,-2.149 12.102,-1.131 15.232,1.992 1.015,1.012 1.84,2.666 2.097,4.203 0.274,1.636 -0.295,4.205 -1.242,5.607 -1.729,2.559 -7.99,6.474 -12.587,7.868 -2.035,0.617 -2.689,0.693 -5.994,0.693 -3.291,0 -3.964,-0.077 -5.956,-0.683 -4.308,-1.308 -8.321,-3.639 -13.421,-7.792 -4.044,-3.293 -5.636,-5.882 -7.033,-11.433 -0.483,-1.92 -0.567,-2.951 -0.568,-6.976 -0.002,-4.3 0.061,-4.969 0.697,-7.497 0.385,-1.525 1.145,-3.722 1.688,-4.879 1.066,-2.27 2.969,-5.232 3.36,-5.232 0.133,0 0.829,0.443 1.549,0.987 1.503,1.135 2.728,1.565 4.46,1.565 1.668,0 2.992,-0.438 4.11,-1.357 2.64,-2.17 2.13,-6.027 -1.292,-9.8 -0.776,-0.856 -1.408,-1.71 -1.403,-1.898 0.005,-0.188 0.495,-1.258 1.088,-2.375 l 1.079,-2.033 1.992,-0.69 c 3.468,-1.201 5.759,-3.089 6.204,-5.109 0.399,-1.812 -1.178,-4.542 -3.225,-5.582 -1.113,-0.567 -2.929,-0.655 -4.001,-0.195 -2.353,1.011 -4.422,3.385 -4.959,5.69 -0.515,2.208 -0.553,2.252 -2.774,3.166 -1.173,0.482 -2.178,0.762 -2.285,0.635 -0.105,-0.126 -0.701,-0.905 -1.324,-1.732 -3.631,-4.818 -8.983,-5.672 -11.378,-1.813 -0.72,1.16 -0.766,1.39 -0.743,3.682 0.018,1.831 0.164,2.826 0.583,3.972 0.669,1.831 0.715,1.773 -2.369,2.96 -3.847,1.479 -6.175,1.866 -11.159,1.855 -3.992,-0.008 -4.748,-0.081 -6.962,-0.671 -7.297,-1.945 -12.565,-6.091 -16.45,-12.945 -5.099,-8.999 -5.22,-18.369 -0.338,-26.29 1.651,-2.679 5.89,-7.006 7.758,-7.92 1.788,-0.875 5.018,-0.883 6.963,-0.017 3.055,1.36 4.726,4.426 4.744,8.705 0.011,2.455 -0.441,4.457 -1.727,7.649 l -0.875,2.173 0.673,0.698 c 2.507,2.611 8.383,1.631 11.96,-1.993 l 1.363,-1.383 1.882,0.888 c 2.761,1.3 4.779,1.743 7.374,1.617 7.362,-0.357 10.713,-6.765 7.623,-14.575 l -0.788,-1.991 1.565,-3.24 c 1.798,-3.72 2.213,-5.092 2.004,-6.618 -0.185,-1.339 -1.322,-3.641 -1.801,-3.641 -0.194,0 -1.199,0.4 -2.234,0.889 -3.854,1.821 -8.776,2.457 -11.599,1.498 -2.787,-0.947 -4.739,-3.99 -4.739,-7.385 0,-4.252 3.255,-6.476 9.49,-6.482 3.027,-0.003 5.651,0.542 8.044,1.67 l 1.441,0.68 0.764,-0.73 c 0.421,-0.401 1.174,-1.556 1.674,-2.564 0.777,-1.567 0.929,-2.167 1.04,-4.112 0.155,-2.708 -0.338,-5.272 -1.474,-7.668 l -0.759,-1.599 0.742,-1.466 c 1.246,-2.461 1.624,-4.161 1.507,-6.771 -0.092,-2.043 -0.209,-2.519 -0.97,-3.937 -2.677,-4.991 -8.917,-6.794 -14.336,-4.145 l -1.151,0.563 -2.113,-1.413 c -3.265,-2.182 -6.223,-2.876 -9.271,-2.175 -1.089,0.25 -3.959,1.558 -4.451,2.028 -0.133,0.126 0.152,1.109 0.679,2.338 3.171,7.41 2.848,12.321 -1.098,16.626 -1.724,1.881 -3.342,2.568 -5.657,2.403 -4.033,-0.288 -6.498,-3.422 -6.475,-8.232 0.015,-2.982 1.042,-5.741 3.342,-8.978 0.617,-0.867 1.121,-1.699 1.121,-1.848 0,-0.544 -3.233,-3.518 -4.478,-4.118 -2.722,-1.311 -6.228,-0.899 -10.052,1.181 -0.885,0.481 -1.715,0.875 -1.846,0.875 -0.13,0 -0.763,-0.51 -1.405,-1.132 -1.564,-1.517 -3.491,-2.228 -6.015,-2.219 -3.264,0.011 -5.691,1.061 -7.762,3.357 -2.636,2.924 -3.061,7.049 -1.222,11.861 l 0.488,1.276 -1.346,1.531 c -2.483,2.826 -4.235,6.23 -4.231,8.222 0.003,1.221 0.495,2.554 1.237,3.345 l 0.713,0.762 2.031,-0.484 c 2.551,-0.609 7.033,-0.656 9.185,-0.098 3.523,0.916 6.218,3.096 6.796,5.501 0.586,2.435 -0.305,6.16 -1.877,7.853 -0.925,0.996 -5.024,3.733 -7.268,4.854 -1.156,0.578 -3.113,1.36 -4.35,1.738 -2.028,0.621 -2.633,0.688 -6.213,0.688 -3.58,0 -4.189,-0.067 -6.269,-0.693 -4.745,-1.43 -10.333,-4.808 -14.214,-8.59 -6.517,-6.353 -8.693,-17.388 -5.325,-27.004 0.835,-2.385 2.721,-5.962 3.785,-7.184 l 0.657,-0.753 1.648,1.012 c 0.906,0.557 2.058,1.125 2.559,1.264 3.461,0.959 6.792,-0.912 7.4,-4.158 0.46,-2.459 -0.488,-4.954 -2.844,-7.475 -0.81,-0.867 -1.466,-1.79 -1.458,-2.054 0.008,-0.263 0.338,-1.281 0.735,-2.264 0.787,-1.95 1.008,-2.132 3.434,-2.839 3.475,-1.013 6.312,-3.565 6.306,-5.675 -0.006,-2.099 -2.031,-4.841 -4.347,-5.885 -3.693,-1.664 -8.565,1.016 -9.313,5.122 -0.202,1.115 -0.222,1.131 -2.942,2.378 l -2.147,0.984 -0.532,-0.743 c -2.207,-3.085 -5.309,-5.209 -7.606,-5.209 -1.609,0 -2.46,0.345 -3.617,1.466 -1.971,1.91 -2.253,5.147 -0.73,8.392 0.959,2.046 0.964,2.038 -1.769,3.108 -4.453,1.742 -10.397,2.563 -15.321,2.115 -6.278,-0.571 -10.851,-2.355 -14.427,-5.626 -3.014,-2.758 -7.609,-10.616 -9.035,-15.451 -0.917,-3.11 -1.134,-7.768 -0.506,-10.865 1.442,-7.117 6.801,-14.224 12.364,-16.397 1.344,-0.525 4.11,-0.559 5.296,-0.063 1.4,0.583 3.217,2.432 3.993,4.063 1.597,3.357 1.54,6.918 -0.197,12.277 l -0.908,2.802 0.858,0.714 c 2.739,2.281 7.845,1.264 11.533,-2.296 l 1.2,-1.158 1.871,0.921 c 5.346,2.632 10.533,2.162 13.767,-1.249 2.673,-2.819 3.36,-6.766 1.888,-10.851 l -0.458,-1.269 0.82,-1.488 c 1.893,-3.434 2.776,-7.031 2.357,-9.597 -0.233,-1.431 -1.447,-4.191 -1.923,-4.374 -0.152,-0.058 -1.25,0.348 -2.439,0.901 -2.734,1.274 -4.661,1.79 -7.407,1.983 -5.599,0.394 -8.683,-1.837 -8.916,-6.451 -0.113,-2.243 0.244,-3.416 1.446,-4.743 1.847,-2.04 4.801,-3.009 9.164,-3.009 3.26,0 5.126,0.451 7.249,1.754 0.715,0.438 1.403,0.797 1.53,0.797 0.394,0 1.783,-1.926 2.517,-3.487 0.647,-1.378 0.699,-1.729 0.691,-4.68 -0.008,-3.075 -0.043,-3.28 -0.985,-5.717 l -0.977,-2.528 0.894,-1.811 c 1.326,-2.686 1.57,-3.629 1.561,-6.021 -0.017,-3.879 -1.806,-6.811 -5.09,-8.343 -1.346,-0.628 -1.836,-0.717 -3.98,-0.717 -2.319,0 -2.546,0.051 -4.429,0.979 l -1.984,0.979 -1.895,-1.307 c -3.075,-2.12 -4.987,-2.897 -7.445,-3.026 -1.506,-0.079 -2.444,0.006 -3.311,0.301 -1.481,0.503 -3.693,1.888 -3.693,2.313 0,0.171 0.409,1.253 0.91,2.405 2.407,5.539 2.44,9.083 0.133,13.905 -1.05,2.195 -1.638,2.876 -3.179,3.682 -1.132,0.592 -1.627,0.69 -3.513,0.693 -2,0.004 -2.307,-0.065 -3.446,-0.768 -1.782,-1.099 -2.613,-2.408 -3.103,-4.886 -0.37,-1.873 -0.371,-2.284 -0.016,-4.39 0.437,-2.585 1.399,-4.869 3.023,-7.178 l 1.06,-1.506 -0.524,-0.841 c -2.561,-4.112 -7.306,-5.059 -13.293,-2.651 l -2.093,0.841 -1.306,-0.877 c -2.172,-1.459 -3.822,-1.906 -6.657,-1.802 -2.146,0.078 -2.661,0.192 -4.138,0.917 -2.115,1.039 -4.027,3.058 -4.824,5.092 -0.859,2.194 -0.801,5.816 0.141,8.708 l 0.696,2.138 -1.011,1.052 c -4.458,4.641 -5.745,8.151 -4.129,11.264 0.753,1.453 0.87,1.474 3.178,0.595 1.34,-0.51 2.006,-0.585 5.245,-0.592 3.241,-0.006 3.93,0.069 5.451,0.592 2.285,0.787 3.733,1.902 4.528,3.486 0.532,1.06 0.64,1.64 0.64,3.443 0,1.868 -0.101,2.375 -0.729,3.649 -1.944,3.949 -8.161,8.29 -14.237,9.94 -2.715,0.738 -7.523,0.723 -10.342,-0.032 -6.035,-1.616 -11.692,-5.273 -16.166,-10.451 -6.121,-7.086 -7.419,-19.073 -3.063,-28.274 1.019,-2.152 3.057,-5.456 3.364,-5.456 0.073,0 0.903,0.464 1.846,1.032 2.156,1.298 4.111,1.887 5.519,1.662 2.866,-0.457 4.664,-2.801 4.464,-5.819 -0.149,-2.26 -1.107,-4.165 -3.137,-6.24 -0.923,-0.943 -1.675,-1.835 -1.671,-1.981 0.016,-0.509 1.915,-3.803 2.295,-3.981 0.21,-0.099 1.247,-0.436 2.303,-0.748 6.662,-1.97 8.391,-5.936 4.307,-9.876 -1.296,-1.25 -2.121,-1.61 -3.694,-1.61 -1.396,0 -2.733,0.656 -3.988,1.957 -1.101,1.14 -2.246,3.452 -2.255,4.551 -0.004,0.421 -0.091,0.891 -0.195,1.043 -0.262,0.386 -4.51,2.66 -4.948,2.648 -0.196,-0.005 -1.042,-0.99 -1.88,-2.188 -1.634,-2.338 -2.761,-3.378 -4.528,-4.177 -2.517,-1.139 -5.341,-0.244 -6.74,2.137 -1.358,2.311 -1.304,4.844 0.165,7.75 0.444,0.878 0.755,1.649 0.691,1.714 -0.064,0.063 -0.744,0.392 -1.511,0.728 -6.094,2.677 -15.222,2.957 -22.045,0.676 -5.691,-1.901 -8.886,-4.408 -12.528,-9.831 -2.31,-3.438 -3.602,-5.904 -4.61,-8.794 -0.822,-2.358 -0.845,-2.535 -0.835,-6.507 0.009,-3.725 0.072,-4.285 0.72,-6.378 2.237,-7.237 6.94,-13.421 11.678,-15.354 1.747,-0.713 4.384,-0.615 6.013,0.224 3.232,1.664 4.732,4.214 4.93,8.379 0.132,2.785 -0.196,4.39 -1.625,7.953 -0.496,1.235 -0.832,2.358 -0.746,2.496 0.085,0.138 0.696,0.567 1.356,0.955 1.086,0.637 1.438,0.705 3.645,0.705 2.305,0 2.552,-0.054 4.377,-0.954 1.195,-0.588 2.342,-1.394 3,-2.105 0.585,-0.633 1.19,-1.152 1.344,-1.152 0.154,0 1.101,0.403 2.105,0.897 6.768,3.322 13.664,1.219 15.661,-4.775 0.6,-1.8 0.406,-5.648 -0.388,-7.733 -0.869,-2.281 -0.911,-2.8 -0.295,-3.663 0.296,-0.416 1.021,-1.757 1.61,-2.981 0.926,-1.925 1.086,-2.51 1.182,-4.328 0.099,-1.878 0.036,-2.267 -0.594,-3.667 -0.388,-0.861 -0.85,-1.567 -1.027,-1.567 -0.177,0 -1.169,0.4 -2.204,0.89 -2.694,1.273 -5.472,1.918 -8.255,1.917 -2.71,-10e-4 -3.71,-0.234 -5.277,-1.226 -1.75,-1.109 -2.627,-2.912 -2.75,-5.663 -0.086,-1.912 -0.025,-2.305 0.518,-3.317 1.679,-3.132 8.342,-5.348 12.732,-4.235 0.915,0.231 2.566,0.943 3.671,1.58 1.104,0.638 2.165,1.099 2.356,1.025 0.521,-0.199 1.887,-2.146 2.574,-3.669 1.655,-3.667 1.224,-7.884 -1.17,-11.453 l -0.538,-0.801 0.613,-0.73 c 2.103,-2.505 2.773,-6.136 1.711,-9.265 -1.417,-4.177 -4.998,-7.404 -9.044,-8.15 -2.26,-0.417 -3.89,-10e-4 -6.586,1.679 -0.637,0.397 -0.701,0.375 -2.303,-0.793 -0.906,-0.662 -2.511,-1.619 -3.566,-2.128 -3.521,-1.699 -7.622,-1.377 -10.107,0.793 l -0.919,0.802 0.639,1.613 c 2.741,6.911 2.296,13.601 -1.167,17.533 -1.913,2.172 -5.017,2.673 -7.794,1.257 -4.876,-2.487 -5.291,-9.511 -0.943,-15.989 1.619,-2.413 1.621,-2.713 0.016,-4.45 -2.75,-2.975 -6.775,-3.3 -12.043,-0.974 -3.027,1.337 -2.853,1.332 -4.165,0.126 -1.936,-1.78 -3.1,-2.177 -6.375,-2.177 -2.519,0 -2.969,0.072 -4.278,0.684 -5.229,2.444 -6.892,7.682 -4.405,13.88 l 0.648,1.618 -1.914,2.216 c -3.903,4.52 -4.753,8.381 -2.491,11.309 l 0.474,0.613 1.249,-0.613 c 1.144,-0.561 1.552,-0.612 4.831,-0.601 3.199,0.011 3.807,0.087 5.681,0.709 2.408,0.8 5.054,2.464 5.88,3.7 0.769,1.149 0.989,2.882 0.632,4.968 -0.395,2.309 -1.226,3.862 -2.922,5.461 -2.844,2.683 -6.718,4.77 -10.93,5.889 -2.09,0.556 -2.976,0.646 -6.272,0.646 -3.335,0 -4.173,-0.088 -6.396,-0.675 -7.987,-2.108 -14.768,-7.769 -18.279,-15.26 -1.566,-3.342 -2.087,-5.65 -2.241,-9.917 -0.157,-4.359 0.237,-7.137 1.58,-11.138 0.981,-2.925 3.063,-7.236 3.494,-7.236 0.157,0 1.188,0.45 2.291,1.001 3.658,1.826 6.283,1.667 8.469,-0.513 0.959,-0.957 1.312,-1.563 1.756,-3.02 0.736,-2.419 0.634,-4.972 -0.271,-6.769 -1.188,-2.358 1.698,-2.131 -29.613,-2.333 -24.071,-0.155 -27.698,-0.13 -27.698,0.191 0,0.423 3.179,2.397 5.629,3.496 4.812,2.155 9.04,2.951 14.713,2.769 5.701,-0.184 10.061,-1.325 15.333,-4.014 1.518,-0.774 2.086,-0.954 2.344,-0.741 0.644,0.533 3.176,3.739 3.176,4.022 0,0.155 -0.503,1.061 -1.118,2.013 -2.235,3.46 -3.918,7.477 -4.945,11.808 -0.884,3.728 -1.103,10.287 -0.468,14.07 1.627,9.704 7.632,18.276 16.479,23.525 4.977,2.953 10.168,4.337 16.279,4.343 5.62,0.005 9.812,-0.863 15.943,-3.302 1.592,-0.632 2.996,-1.115 3.12,-1.07 0.125,0.043 0.856,0.806 1.626,1.694 l 1.398,1.614 -1.85,3.618 c -1.913,3.74 -3.603,8.396 -4.417,12.167 -0.366,1.698 -0.467,3.28 -0.465,7.273 0.003,4.768 0.05,5.287 0.724,7.876 1.703,6.549 4.56,11.284 9.78,16.212 7.425,7.01 16.415,9.927 26.471,8.593 4.088,-0.543 7.42,-1.49 13.649,-3.877 l 1.245,-0.477 1.501,1.659 c 0.826,0.912 1.503,1.799 1.505,1.969 0.002,0.17 -0.637,1.292 -1.421,2.491 -3.679,5.63 -5.631,11.779 -5.923,18.661 -0.23,5.435 0.945,10.733 3.604,16.246 1.769,3.666 3.42,5.958 6.219,8.628 10.35,9.878 22.959,11.475 38.568,4.882 l 2.791,-1.179 1.498,1.649 c 0.824,0.907 1.563,1.894 1.644,2.195 0.094,0.351 -0.104,0.942 -0.553,1.65 -0.384,0.607 -1.315,2.333 -2.07,3.835 -7.354,14.652 -4.942,29.118 6.804,40.807 5.528,5.501 10.618,8.396 17.288,9.831 2.771,0.596 8.638,0.607 11.83,0.021 3.634,-0.667 8.666,-2.268 12.404,-3.946 0.187,-0.083 2.72,2.516 3.102,3.185 0.146,0.258 -0.177,0.944 -1.042,2.208 -2.588,3.785 -4.007,6.929 -5.116,11.335 -0.63,2.501 -0.693,3.188 -0.699,7.598 -0.008,5.429 0.276,7.25 1.83,11.732 1.705,4.917 4.438,9.262 8.268,13.14 6.475,6.558 13.621,9.814 22.261,10.143 5.845,0.224 11.059,-0.733 17.063,-3.129 l 3.016,-1.203 1.601,1.756 c 0.881,0.967 1.602,1.883 1.604,2.038 10e-4,0.153 -0.641,1.237 -1.427,2.408 -5.979,8.909 -7.473,18.66 -4.425,28.894 0.943,3.166 2.053,5.613 3.618,7.98 4.928,7.452 12.709,12.601 22.224,14.707 3.474,0.768 9.682,0.829 13.019,0.128 2.917,-0.613 6.3,-1.759 8.82,-2.986 1.14,-0.555 2.202,-1.01 2.361,-1.01 0.247,0 3.254,3.411 3.736,4.239 0.091,0.157 -0.553,1.478 -1.431,2.936 -3.349,5.563 -4.997,11.109 -5.225,17.587 -0.166,4.746 0.261,7.952 1.581,11.89 3.829,11.413 13.119,19.523 25.291,22.077 1.993,0.42 3.54,0.551 6.572,0.562 5.771,0.02 10.135,-0.875 15.468,-3.17 1.273,-0.547 2.376,-0.997 2.451,-0.997 0.185,-10e-4 3.318,3.729 3.318,3.95 0,0.096 -0.393,0.653 -0.872,1.238 -2.731,3.333 -5.171,8.946 -6.063,13.951 -0.49,2.753 -0.425,9.045 0.123,11.834 2.405,12.247 10.788,21.76 22.688,25.744 3.821,1.28 5.922,1.59 10.735,1.583 5.998,-0.009 9.697,-0.806 14.813,-3.196 1.181,-0.552 2.342,-1.003 2.582,-1.003 0.443,0 3.651,3.544 3.794,4.191 0.042,0.197 -0.545,1.162 -1.307,2.146 -2.521,3.254 -4.676,8.188 -5.674,12.998 -0.477,2.298 -1.049,8.754 -0.826,9.332 0.09,0.234 0.27,0.426 0.399,0.426 0.126,-0.014 1.143,-1.022 2.257,-2.249 z m -10.331,-72.306 c -3.635,-4.223 -6.645,-7.832 -6.688,-8.021 -0.113,-0.492 3.781,-3.067 4.199,-2.776 0.18,0.125 3.278,3.706 6.889,7.959 5.651,6.656 6.517,7.786 6.231,8.129 -0.51,0.612 -3.22,2.387 -3.645,2.387 -0.208,-0.001 -3.351,-3.455 -6.986,-7.678 z M 424.74,393.493 c -2.092,-0.35 -3.91,-1.408 -5.177,-3.014 -1.399,-1.771 -1.644,-2.599 -1.626,-5.522 0.016,-2.763 0.252,-3.464 1.858,-5.501 1.71,-2.17 3.758,-3.136 6.701,-3.16 1.821,-0.014 2.244,0.078 3.765,0.824 2.71,1.33 4.216,3.362 4.792,6.47 0.893,4.809 -1.984,9.023 -6.753,9.895 -1.678,0.305 -1.784,0.305 -3.56,0.008 z m 4.048,-4.831 c 1.071,-0.661 2.012,-2.515 2.012,-3.966 0,-1.379 -0.789,-2.656 -2.091,-3.386 -1.308,-0.733 -2.655,-0.712 -4.337,0.068 -1.097,0.51 -1.445,0.834 -1.849,1.72 -0.658,1.444 -0.635,2.145 0.122,3.659 0.593,1.186 1.58,1.961 3.207,2.517 0.667,0.228 2.037,-0.059 2.936,-0.612 z m 11.134,-15.959 c -1.254,-1.263 -1.591,-1.749 -1.399,-2.023 0.197,-0.283 9.829,-8.485 14.965,-12.743 l 0.887,-0.736 1.24,1.373 c 1.879,2.082 1.879,2.084 0.624,3.244 -1.975,1.827 -14.387,12.549 -14.526,12.549 -0.077,-0.001 -0.882,-0.749 -1.791,-1.664 z m -33.342,-6.475 c -3.322,-3.773 -6.35,-7.227 -6.728,-7.674 l -0.687,-0.813 1.63,-1.642 c 0.896,-0.902 1.775,-1.64 1.951,-1.64 0.469,0 14.175,15.372 14.092,15.804 -0.086,0.454 -3.244,2.782 -3.807,2.807 -0.23,0.012 -3.06,-2.99 -6.451,-6.842 z m -57.744,-65.774 c -3.729,-4.018 -6.879,-7.476 -7,-7.684 -0.163,-0.28 0.206,-0.809 1.399,-2.01 0.892,-0.896 1.739,-1.63 1.886,-1.63 0.248,0 13.986,15.353 14.156,15.819 0.098,0.27 -2.936,2.81 -3.354,2.81 -0.168,-0.001 -3.358,-3.287 -7.087,-7.305 z m -21.355,-14.956 c -2.99,-1.637 -4.477,-3.928 -4.688,-7.224 -0.151,-2.356 0.218,-3.85 1.384,-5.603 1.67,-2.508 3.6,-3.448 7.079,-3.448 3.223,0 4.491,0.455 6.343,2.274 1.806,1.774 2.538,3.551 2.538,6.154 0,3.478 -1.685,6.226 -4.773,7.787 -1.296,0.655 -1.819,0.764 -3.926,0.825 -2.327,0.067 -2.497,0.034 -3.957,-0.765 z m 5.285,-3.523 c 1.29,-0.357 2.902,-2.205 3.122,-3.578 0.255,-1.59 -0.213,-2.886 -1.41,-3.908 -1.21,-1.032 -2.526,-1.338 -4.023,-0.937 -4.388,1.178 -4.265,7.101 0.176,8.439 0.936,0.282 1.061,0.281 2.135,-0.016 z m 11.992,-16.38 c -0.712,-0.877 -1.295,-1.72 -1.295,-1.872 0,-0.325 14.68,-13.478 15.158,-13.582 0.178,-0.039 1.063,0.673 1.965,1.581 1.36,1.369 1.588,1.716 1.328,2.027 -0.402,0.484 -15.031,12.978 -15.505,13.241 -0.252,0.142 -0.737,-0.268 -1.651,-1.395 z m -33.611,-7.645 c -3.758,-4.375 -6.832,-8.038 -6.832,-8.137 0,-0.263 3.146,-2.792 3.474,-2.792 0.268,0 13.972,15.327 14.133,15.807 0.068,0.204 -3.503,3.079 -3.825,3.079 -0.066,-10e-4 -3.193,-3.581 -6.95,-7.957 z m -59.285,-67.291 c -3.729,-4.037 -6.78,-7.523 -6.78,-7.748 0,-0.58 3.438,-3.554 3.838,-3.321 0.568,0.331 13.433,15.445 13.433,15.782 0,0.442 -2.755,2.654 -3.286,2.638 -0.234,-0.006 -3.476,-3.314 -7.205,-7.351 z M 231.46,176.138 c -2.804,-1.15 -4.666,-3.301 -5.672,-6.552 -0.524,-1.691 -0.528,-1.802 -0.115,-3.308 1.111,-4.054 3.417,-6.421 6.98,-7.169 1.607,-0.337 2.015,-0.336 3.654,0.007 4.44,0.932 6.989,4.104 6.962,8.666 -0.021,3.753 -1.604,6.339 -4.855,7.931 -1.931,0.947 -5.198,1.146 -6.954,0.425 z m 5.481,-4.94 c 2.695,-1.661 2.716,-5.069 0.046,-7.186 -0.761,-0.604 -1.183,-0.739 -2.325,-0.75 -1.652,-0.015 -2.53,0.469 -3.429,1.89 -1.644,2.597 -0.613,5.715 2.185,6.608 0.937,0.3 2.541,0.044 3.523,-0.562 z m 11.573,-16.072 c -1.08,-1.243 -1.299,-1.641 -1.09,-1.978 0.222,-0.356 10.042,-9.027 13.987,-12.348 l 1.234,-1.039 1.767,1.748 c 1.694,1.677 1.749,1.769 1.328,2.232 -0.804,0.886 -15.348,12.941 -15.613,12.941 -0.144,-10e-4 -0.87,-0.701 -1.613,-1.556 z m -34.154,-6.992 c -3.65,-4.14 -6.667,-7.672 -6.706,-7.849 -0.039,-0.177 0.681,-1.064 1.601,-1.973 l 1.671,-1.652 0.878,0.888 c 2.303,2.327 13.189,14.969 13.18,15.306 -0.011,0.426 -3.102,2.807 -3.644,2.807 -0.19,-0.001 -3.331,-3.387 -6.98,-7.527 z M 156.426,82.026 c -3.814,-4.286 -6.994,-7.946 -7.066,-8.132 -0.173,-0.451 2.707,-2.983 3.294,-2.898 0.492,0.072 14.259,14.911 14.259,15.369 0,0.295 -3.092,3.454 -3.381,3.454 -0.094,0 -3.291,-3.507 -7.106,-7.793 z M 137.468,67.598 c -1.447,-0.225 -2.814,-0.906 -4.535,-2.263 -1.522,-1.2 -2.104,-2.221 -2.721,-4.771 -0.432,-1.785 -0.429,-1.864 0.125,-3.956 0.52,-1.962 0.68,-2.244 1.978,-3.489 1.733,-1.662 2.825,-2.235 4.944,-2.599 2.148,-0.368 5.229,0.181 6.694,1.192 2.497,1.726 3.844,4.214 3.844,7.099 -0.001,5.431 -4.927,9.621 -10.329,8.787 z m 3.644,-4.884 c 1.073,-0.601 1.756,-1.532 2.244,-3.055 0.262,-0.818 0.228,-1.11 -0.26,-2.24 -0.622,-1.441 -1.372,-2.092 -2.961,-2.566 -2.747,-0.819 -5.268,1.167 -5.245,4.131 0.011,1.405 0.625,2.606 1.864,3.646 1.025,0.859 2.911,0.896 4.358,0.084 z M 153.264,46.22 c -0.823,-0.83 -1.457,-1.679 -1.408,-1.886 0.101,-0.427 15.188,-13.806 15.706,-13.928 0.364,-0.085 2.934,3.135 2.934,3.675 0,0.423 -14.708,13.478 -15.295,13.574 -0.261,0.045 -1.053,-0.543 -1.937,-1.435 z M 118.81,39.286 c -3.588,-4.197 -6.551,-7.836 -6.583,-8.088 -0.05,-0.39 1.708,-2.028 2.912,-2.713 0.341,-0.193 14.26,14.477 14.342,15.116 0.062,0.482 -3.174,3.353 -3.753,3.33 -0.217,-0.009 -3.33,-3.449 -6.918,-7.645 z m 229.213,410.238 c -0.144,-0.663 -47.806,-54.246 -48.478,-54.501 -0.818,-0.311 -270.278,-0.322 -270.769,-0.012 -0.741,0.468 5.454,17.411 9.908,27.101 4.448,9.677 12.75,25.535 14.315,27.347 0.369,0.423 295.098,0.403 295.024,0.065 z m 95.264,-4.873 c 0.122,-0.075 0.222,-1.134 0.225,-2.354 10e-4,-1.22 0.156,-2.792 0.345,-3.494 1.153,-4.299 4.431,-7.548 8.746,-8.669 3.578,-0.93 7.404,-0.025 10.598,2.505 1.291,1.022 1.514,0.962 2.327,-0.626 0.818,-1.601 3.217,-3.972 4.802,-4.746 1.236,-0.605 1.758,-0.709 3.5,-0.693 3.177,0.026 5.794,1.16 9.538,4.131 0.932,0.739 1.815,1.307 1.963,1.262 0.682,-0.209 5.492,-10.588 9.48,-20.452 2.166,-5.356 5.501,-15.079 5.501,-16.034 0,-0.214 -0.183,-0.459 -0.405,-0.544 -0.732,-0.28 -28.502,-0.176 -29.036,0.109 -0.392,0.209 -0.496,0.542 -0.498,1.595 -0.005,1.696 -0.449,3.351 -1.654,6.15 l -0.96,2.229 0.451,1.581 c 0.647,2.267 0.773,6.236 0.271,8.597 -0.889,4.184 -3.511,8.147 -6.868,10.387 -2.722,1.816 -5.021,2.497 -8.381,2.484 -2.208,-0.009 -3.105,-0.14 -5.039,-0.734 l -2.353,-0.724 -1.997,1.033 c -7.009,3.63 -12.751,3.196 -17.33,-1.307 -1.631,-1.604 -3.474,-4.102 -3.474,-4.707 0,-0.187 0.413,-0.877 0.917,-1.535 1.949,-2.546 3.622,-7.053 3.355,-9.038 -0.173,-1.287 -0.788,-2.19 -1.635,-2.401 -2.011,-0.504 -5.861,3.488 -8.169,8.47 -1.046,2.257 -1.497,5.14 -1.276,8.153 0.287,3.929 1.248,6.414 4.221,10.911 3.247,4.915 7.476,7.778 12.702,8.601 1.505,0.236 9.706,0.124 10.133,-0.14 z m -45.245,-13.937 c -0.602,-3.286 -0.712,-9.395 -0.23,-12.65 0.446,-3.006 1.376,-6.553 2.214,-8.445 0.271,-0.611 0.434,-1.206 0.363,-1.32 -0.071,-0.114 -0.502,-0.102 -0.958,0.029 -5.987,1.721 -13.322,1.798 -19.665,0.206 -1.688,-0.423 -3.18,-0.733 -3.316,-0.688 -0.136,0.045 21.643,24.911 21.746,24.848 0.103,-0.064 0.033,-0.955 -0.154,-1.98 z m -47.419,-52.457 c -0.003,-0.105 -0.175,-1.226 -0.383,-2.488 -0.491,-2.979 -0.489,-9.269 0.003,-12.294 0.411,-2.53 1.36,-5.765 2.341,-7.977 0.9,-2.029 0.615,-2.215 -2.351,-1.534 -1.572,0.36 -3.619,0.569 -6.515,0.669 -4.735,0.162 -8.141,-0.21 -12.487,-1.364 -3.453,-0.918 -3.714,-0.964 -3.602,-0.652 0.172,0.48 22.506,25.832 22.756,25.832 0.134,0 0.241,-0.086 0.238,-0.192 z M 250.58,339.467 c -0.002,-0.158 -43.918,-49.85 -47.476,-53.72 l -186.002,-1.084 -0.079,19.523 c -0.07,17.541 0.189,31.741 0.631,34.516 l 0.153,0.957 c 0,0 232.775,-0.086 232.773,-0.192 z m 152.245,-0.056 c 2.04,0.023 27.256,0.06 56.034,0.081 l 52.324,0.039 0.246,-1.53 c 0.146,-0.908 0.252,-12.085 0.258,-27.435 l 0.01,-25.903 c 0,0 -137.79,-0.064 -137.808,0.191 -0.012,0.175 -0.008,1.525 0.01,3 0.034,2.881 -0.415,5.022 -1.634,7.769 l -0.629,1.418 0.486,1.411 c 2.474,7.169 -0.21,15.25 -6.385,19.23 -3.915,2.523 -9.036,3.077 -14.229,1.539 l -1.844,-0.545 -2.086,0.939 c -7.817,3.52 -11.965,3.359 -16.462,-0.638 -1.282,-1.14 -4.285,-4.767 -4.285,-5.176 0,-0.095 0.39,-0.719 0.865,-1.386 2.021,-2.83 3.229,-6.063 3.229,-8.64 0,-1.342 -0.104,-1.717 -0.662,-2.378 -1.107,-1.313 -2.121,-1.06 -4.416,1.102 -2.319,2.185 -4.258,5.674 -5.187,9.338 -0.443,1.748 -0.52,2.626 -0.412,4.712 0.191,3.7 1.069,6.028 4.371,11.593 1.339,2.257 1.864,2.882 3.542,4.222 3.946,3.149 7.763,4.493 12.72,4.478 2.71,-0.008 5.638,-0.402 6.38,-0.859 0.162,-0.101 0.296,-0.726 0.296,-1.39 0,-3.145 1.622,-6.817 4.074,-9.226 4.634,-4.552 11.013,-5.028 15.54,-1.164 0.586,0.5 1.161,0.906 1.279,0.901 0.118,-0.004 0.676,-0.706 1.239,-1.56 1.201,-1.824 3.351,-3.71 5.328,-4.675 4.283,-2.09 9.232,-1.178 12.884,2.374 2.799,2.723 3.817,5.932 3.06,9.636 -0.549,2.689 -1.681,4.897 -3.513,6.851 -0.831,0.886 -1.512,1.689 -1.512,1.785 0,0.097 2.965,0.103 6.589,0.014 3.625,-0.087 8.259,-0.141 10.3,-0.118 z m -100.913,-17.17 c -0.092,-0.597 -0.235,-2.634 -0.32,-4.529 -0.232,-5.233 0.431,-9.746 2.229,-15.146 0.553,-1.663 0.948,-3.117 0.878,-3.23 -0.07,-0.114 -0.732,-0.047 -1.472,0.148 -5.89,1.562 -14.58,1.495 -20.631,-0.158 -1.038,-0.283 -1.947,-0.458 -2.019,-0.387 -0.072,0.071 0.03,0.354 0.227,0.628 0.844,1.183 20.847,23.759 21.05,23.759 0.125,0 0.15,-0.488 0.058,-1.085 z m -48.403,-56.005 c -1.079,-6.81 -0.425,-13.688 1.806,-18.993 0.376,-0.894 0.813,-1.937 0.971,-2.317 0.158,-0.38 0.212,-0.766 0.122,-0.857 -0.091,-0.091 -1.295,0.128 -2.675,0.486 -6.477,1.682 -13.164,1.556 -19.16,-0.36 -2.697,-0.861 -2.771,-0.873 -2.579,-0.373 0.245,0.637 21.433,24.648 21.638,24.522 0.106,-0.066 0.051,-1.014 -0.123,-2.108 z m -100.669,-36.9 c 0,-0.315 -47.43,-54.057 -48.3,-54.728 l -87.438,-0.19 -0.13,55.25 c 0,0 135.868,-0.06 135.868,-0.332 z m 358.857,-54.918 c 0,0 -235.206,-0.04 -235.315,0.069 -0.107,0.108 -0.071,0.998 0.081,1.978 0.375,2.398 -0.061,5.395 -1.239,8.533 l -0.91,2.424 0.418,2.175 c 1.24,6.458 -0.221,11.86 -4.319,15.964 -2.391,2.395 -4.732,3.679 -7.857,4.313 -3.071,0.623 -5.782,0.427 -8.98,-0.647 l -1.519,-0.51 -2.24,0.904 c -8.129,3.283 -12.249,3.091 -16.197,-0.753 -1.398,-1.361 -4.02,-4.604 -4.02,-4.971 0,-0.097 0.558,-1.101 1.239,-2.231 2.945,-4.887 3.247,-9.393 0.723,-10.784 -0.652,-0.359 -0.78,-0.341 -1.906,0.276 -2.391,1.31 -5.573,5.973 -6.604,9.674 -0.215,0.771 -0.454,2.896 -0.531,4.721 -0.222,5.261 0.224,6.629 4.1,12.562 1.607,2.459 2.542,3.612 3.657,4.505 1.994,1.596 5.682,3.4 7.894,3.86 2.949,0.614 10.733,0.37 11.464,-0.359 0.119,-0.119 0.237,-1.413 0.261,-2.877 0.042,-2.513 0.097,-2.767 0.996,-4.581 3.375,-6.809 11.493,-8.716 18.332,-4.308 1.746,1.125 1.523,1.194 3.233,-0.998 3.637,-4.663 9.017,-5.8 14.601,-3.087 8.191,3.98 10.453,11.879 5.262,18.371 -0.277,0.347 -0.448,0.72 -0.381,0.83 l 219.756,0.07 10e-4,-55.123 0,0 z M 204.925,211.74 c -0.768,-5.752 -0.828,-8.409 -0.282,-12.44 0.392,-2.89 1.291,-6.255 2.333,-8.723 0.358,-0.85 0.596,-1.691 0.528,-1.869 -0.095,-0.246 -0.702,-0.152 -2.531,0.39 -4.017,1.191 -7.436,1.609 -11.833,1.446 -2.111,-0.078 -4.644,-0.326 -5.629,-0.552 -3.417,-0.782 -3.301,-0.771 -3.119,-0.298 0.221,0.574 20.2,23.376 20.487,23.381 0.123,0.004 0.144,-0.597 0.046,-1.335 z m -47.904,-55.251 c -0.335,-3.479 -0.21,-8.854 0.267,-11.547 0.236,-1.333 0.952,-3.917 1.589,-5.742 1.6,-4.576 1.601,-4.585 0.845,-4.373 -5.618,1.578 -9.567,2.112 -13.535,1.832 -2.583,-0.183 -6.465,-0.871 -8.56,-1.516 -1.371,-0.422 -1.583,-0.392 -1.251,0.178 0.417,0.716 20.426,23.401 20.641,23.401 0.121,0.001 0.122,-1.004 0.004,-2.233 z M 54.838,119.175 c 0.326,-0.206 0.309,-0.329 -0.128,-0.884 -1.81,-2.304 -37.159,-41.964 -37.417,-41.979 -0.469,-0.026 -0.469,42.752 0,42.942 0.605,0.243 37.156,0.167 37.545,-0.079 z m 456.669,0.036 0.19,-55.04 c 0,0 -330.598,-0.055 -330.735,0.166 -0.1,0.162 -0.02,0.753 0.178,1.313 0.974,2.753 0.709,6.075 -0.852,10.702 l -0.924,2.738 0.427,1.765 c 1.01,4.173 0.35,9.215 -1.677,12.796 -4.11,7.266 -12.231,9.963 -20.299,6.744 -1.101,-0.439 -1.853,-0.61 -2.055,-0.466 -3.311,2.349 -5.465,3.298 -8.083,3.561 -5.136,0.516 -10.769,-2.75 -13.359,-7.746 -0.472,-0.91 -0.451,-0.977 0.755,-2.479 1.805,-2.248 3.182,-5.941 3.182,-8.534 0,-1.055 -0.124,-1.438 -0.627,-1.941 -1.09,-1.087 -2.637,-0.654 -4.772,1.336 -2.336,2.176 -4.186,5.362 -5.23,9.011 -0.729,2.547 -0.684,7.195 0.096,9.697 1.702,5.467 6.228,11.147 10.741,13.48 3.619,1.872 5.207,2.218 10.029,2.188 2.322,-0.014 4.567,-0.137 4.989,-0.272 0.764,-0.245 0.769,-0.257 0.932,-2.653 0.201,-2.944 0.681,-4.536 1.964,-6.509 3.995,-6.142 11.921,-7.315 17.696,-2.619 0.49,0.398 0.976,0.724 1.08,0.724 0.104,0 0.678,-0.66 1.275,-1.467 3.206,-4.334 7.234,-6.409 11.068,-5.703 4.137,0.763 8.25,4.057 10.226,8.19 0.714,1.495 0.793,1.899 0.793,4.083 0,2.489 -0.119,2.861 -2.115,6.678 -0.049,0.093 0.119,0.223 0.373,0.29 0.814,0.211 314.4,0.178 314.734,-0.033 z M 109.429,102.643 c -0.118,-1.088 -0.213,-3.815 -0.211,-6.062 0.003,-4.871 0.482,-7.833 1.959,-12.122 1.519,-4.407 1.501,-4.189 0.314,-4.005 -0.548,0.085 -1.918,0.337 -3.044,0.56 -2.797,0.554 -9.896,0.781 -12.793,0.409 -1.267,-0.163 -3.489,-0.587 -4.939,-0.943 -1.45,-0.356 -2.765,-0.605 -2.922,-0.552 -0.157,0.053 1.835,2.501 4.427,5.442 2.592,2.941 7.471,8.476 10.841,12.299 3.37,3.823 6.23,6.951 6.355,6.951 0.13,10e-4 0.136,-0.836 0.013,-1.977 z M 61.388,49.051 c -0.679,-3.238 -0.877,-9.829 -0.396,-13.206 0.392,-2.751 1.234,-5.908 2.207,-8.267 0.539,-1.307 0.791,-2.234 0.647,-2.378 -0.144,-0.143 -0.773,-0.083 -1.613,0.154 -6.862,1.941 -16.314,2.398 -21.016,1.018 -0.904,-0.266 -0.391,0.543 2.187,3.445 1.449,1.631 18.314,20.804 17.984,19.234 z"
     id="path3007" /></g></svg>